<html>
<head>
<meta charset="UTF-8">
<meta name="viewport" content="width=device-width, initial-scale=1.0"/>

<style>
.comment
{
    padding-left: 20px;
    margin-top: 4px;
    margin-right: 4px;
    margin-bottom: 4px;
    border: 2px #000 solid;
}
.submission
{
    border: 4px #00f solid;
    padding-left: 20px;
}
.hidden
{
    display: none;
}
</style>
</head>
<body><div class="submission" id="t3_7slqhd">
    <p class="userinfo">
        <a href="https://www.reddit.com/u/heartless_drol">heartless_drol</a>
        <span class="score"> | 72 points</span>
        <span class="timestamp"> | Jan 24 2018 08:32:03</span>
    </p>
    <strong>[TV] 11.22.63 (2016) Season 1 S01 (1080p BluRay x265 HEVC 10bit Advanced Audio 5.1 Qman) [UTR-HD]</strong>
    <p><p>Link: aHR0c<strong>X</strong>HM6Ly9tZWdhLm56LyNGIU1SaEVq<strong>X</strong>WVFhIVNyMExRU2RlQTBkUXZJcFdlaFhZS3c=</p>
<p>Base64 encrypted. Decode <a href="https://www.base64decode.org/">here</a></p>
<p>Note: remove the bold characters from link</p></p>
    <p class="toolbar">
        <a href="https://www.reddit.com/r/megalinks/comments/7slqhd">permalink</a>
    </p>
</div>
<div class="comment" id="t1_dt5pyo5">
    <p class="userinfo">
        <a
        class="toggle_hide_button"
        href="javascript:void(0)"
        onclick="toggle_collapse(this.parentElement.parentElement)">[-]
        </a>
        <a href="https://www.reddit.com/u/TheGoodSheep">TheGoodSheep</a>
        <span class="score"> | 4 points</span>
        <span class="timestamp"> | Jan 24 2018 08:56:05</span>
    </p>
    <div class="collapsible">
        <p>Just an info: As long as there is no book sequel it's pretty unlikely there's a seond season. It's a mini series.</p>
        <p class="toolbar">
            <a href="https://www.reddit.com/r/megalinks/comments/7slqhd/_/dt5pyo5">permalink</a>
        </p>
        <div class="comment" id="t1_dt5q04e">
    <p class="userinfo">
        <a
        class="toggle_hide_button"
        href="javascript:void(0)"
        onclick="toggle_collapse(this.parentElement.parentElement)">[-]
        </a>
        <a href="https://www.reddit.com/u/heartless_drol">heartless_drol</a>
        <span class="score"> | 3 points</span>
        <span class="timestamp"> | Jan 24 2018 08:57:44</span>
    </p>
    <div class="collapsible">
        <p>that's just how the torrent was named. :)</p>
        <p class="toolbar">
            <a href="https://www.reddit.com/r/megalinks/comments/7slqhd/_/dt5q04e">permalink</a>
        </p>
        <div class="comment" id="t1_dt5q66i">
    <p class="userinfo">
        <a
        class="toggle_hide_button"
        href="javascript:void(0)"
        onclick="toggle_collapse(this.parentElement.parentElement)">[-]
        </a>
        <a href="https://www.reddit.com/u/TheGoodSheep">TheGoodSheep</a>
        <span class="score"> | 4 points</span>
        <span class="timestamp"> | Jan 24 2018 09:04:35</span>
    </p>
    <div class="collapsible">
        <p>Haha, no accusation, just a heads up for people who are looking to DL :)</p>
        <p class="toolbar">
            <a href="https://www.reddit.com/r/megalinks/comments/7slqhd/_/dt5q66i">permalink</a>
        </p>
        
    </div>
</div>
    </div>
</div>

<div class="comment" id="t1_dt5xlsy">
    <p class="userinfo">
        <a
        class="toggle_hide_button"
        href="javascript:void(0)"
        onclick="toggle_collapse(this.parentElement.parentElement)">[-]
        </a>
        <a href="https://www.reddit.com/u/effrightscorp">effrightscorp</a>
        <span class="score"> | 2 points</span>
        <span class="timestamp"> | Jan 24 2018 13:30:01</span>
    </p>
    <div class="collapsible">
        <p>I don't get why you'd really want a sequel, either. I'm not a fan of the first part of the ending, but the second part, right before it cuts to the credits, is one of Stephen King's better endings</p>
        <p class="toolbar">
            <a href="https://www.reddit.com/r/megalinks/comments/7slqhd/_/dt5xlsy">permalink</a>
        </p>
        <div class="comment" id="t1_dt61h5m">
    <p class="userinfo">
        <a
        class="toggle_hide_button"
        href="javascript:void(0)"
        onclick="toggle_collapse(this.parentElement.parentElement)">[-]
        </a>
        <a href="https://www.reddit.com/u/MrFlagg">MrFlagg</a>
        <span class="score"> | 5 points</span>
        <span class="timestamp"> | Jan 24 2018 14:50:28</span>
    </p>
    <div class="collapsible">
        <p>SK loves ucking things up for more money</p>
<p>see: The Dome</p>
<p>Dark Tower</p>
<p>It</p>
        <p class="toolbar">
            <a href="https://www.reddit.com/r/megalinks/comments/7slqhd/_/dt61h5m">permalink</a>
        </p>
        <div class="comment" id="t1_dt6518o">
    <p class="userinfo">
        <a
        class="toggle_hide_button"
        href="javascript:void(0)"
        onclick="toggle_collapse(this.parentElement.parentElement)">[-]
        </a>
        <a href="https://www.reddit.com/u/effrightscorp">effrightscorp</a>
        <span class="score"> | 2 points</span>
        <span class="timestamp"> | Jan 24 2018 15:51:38</span>
    </p>
    <div class="collapsible">
        <p>I really liked the new IT; still not done with the book, but I'm pretty sure the ending will be decent if it's like the movie. The Dark Tower movie was a very disappointing train wreck, though, and I wouldn't want to watch The Dome because I hated the ending to that book. </p>
<p>Also, another terrible Stephen King ending - The Stand. You read like well over 1000 pages of this book with tiny print and then you get the dumbest possible 'resolution'.</p>
<p>edit: Also, nice username</p>
        <p class="toolbar">
            <a href="https://www.reddit.com/r/megalinks/comments/7slqhd/_/dt6518o">permalink</a>
        </p>
        <div class="comment" id="t1_dt6zzzr">
    <p class="userinfo">
        <a
        class="toggle_hide_button"
        href="javascript:void(0)"
        onclick="toggle_collapse(this.parentElement.parentElement)">[-]
        </a>
        <a href="https://www.reddit.com/u/LaGrrrande">LaGrrrande</a>
        <span class="score"> | 3 points</span>
        <span class="timestamp"> | Jan 25 2018 00:12:18</span>
    </p>
    <div class="collapsible">
        <blockquote>
<p>I really liked the new IT; still not done with the book, but I'm pretty sure the ending will be decent if it's like the movie. </p>
</blockquote>
<p>The thing about the new It is that it only covers half of the book. So, while it might be a great ending to the movie, we'll have to wait until the end of the next movie to see if they can salvage a decent ending from the source material. It wouldn't be the first time the director of a Stephen King movie called an audible and made a decent ending when the book's ending was trash (The Mist). </p>
        <p class="toolbar">
            <a href="https://www.reddit.com/r/megalinks/comments/7slqhd/_/dt6zzzr">permalink</a>
        </p>
        <div class="comment" id="t1_dt711wc">
    <p class="userinfo">
        <a
        class="toggle_hide_button"
        href="javascript:void(0)"
        onclick="toggle_collapse(this.parentElement.parentElement)">[-]
        </a>
        <a href="https://www.reddit.com/u/effrightscorp">effrightscorp</a>
        <span class="score"> | 1 points</span>
        <span class="timestamp"> | Jan 25 2018 00:32:11</span>
    </p>
    <div class="collapsible">
        <p>Good point, I only know the ending of the movie. I'm close enough to the end of the book where I can kinda see where the ending to part 2 would be headed, but his endings surprise me half the time anyway, even when my  original guess is on the right track</p>
        <p class="toolbar">
            <a href="https://www.reddit.com/r/megalinks/comments/7slqhd/_/dt711wc">permalink</a>
        </p>
        
    </div>
</div>
    </div>
</div>

<div class="comment" id="t1_dt65hnc">
    <p class="userinfo">
        <a
        class="toggle_hide_button"
        href="javascript:void(0)"
        onclick="toggle_collapse(this.parentElement.parentElement)">[-]
        </a>
        <a href="https://www.reddit.com/u/Tia00017">Tia00017</a>
        <span class="score"> | 1 points</span>
        <span class="timestamp"> | Jan 24 2018 15:59:04</span>
    </p>
    <div class="collapsible">
        <p>Disagree with The Stand. I thought the ending was good. It also allows for more wiggle room within the Dark Tower canon.  </p>
        <p class="toolbar">
            <a href="https://www.reddit.com/r/megalinks/comments/7slqhd/_/dt65hnc">permalink</a>
        </p>
        <div class="comment" id="t1_dt6znex">
    <p class="userinfo">
        <a
        class="toggle_hide_button"
        href="javascript:void(0)"
        onclick="toggle_collapse(this.parentElement.parentElement)">[-]
        </a>
        <a href="https://www.reddit.com/u/95teetee">95teetee</a>
        <span class="score"> | 1 points</span>
        <span class="timestamp"> | Jan 25 2018 00:05:43</span>
    </p>
    <div class="collapsible">
        <p>I also disagree about the 'for more money' part. </p>
<p>A guy who sells his stories literally for a dollar isn't all about the money.</p>
<p>He just sucks at endings sometimes (and he'll be the first to point it out).</p>
        <p class="toolbar">
            <a href="https://www.reddit.com/r/megalinks/comments/7slqhd/_/dt6znex">permalink</a>
        </p>
        
    </div>
</div>
    </div>
</div>
    </div>
</div>
    </div>
</div>

<div class="comment" id="t1_dt6aetu">
    <p class="userinfo">
        <a
        class="toggle_hide_button"
        href="javascript:void(0)"
        onclick="toggle_collapse(this.parentElement.parentElement)">[-]
        </a>
        <a href="https://www.reddit.com/u/notdeadyet01">notdeadyet01</a>
        <span class="score"> | 1 points</span>
        <span class="timestamp"> | Jan 24 2018 17:17:32</span>
    </p>
    <div class="collapsible">
        <p>I think his son helped with the ending, so that probably explains why.</p>
        <p class="toolbar">
            <a href="https://www.reddit.com/r/megalinks/comments/7slqhd/_/dt6aetu">permalink</a>
        </p>
        
    </div>
</div>
    </div>
</div>
    </div>
</div>

<div class="comment" id="t1_dt5ylkz">
    <p class="userinfo">
        <a
        class="toggle_hide_button"
        href="javascript:void(0)"
        onclick="toggle_collapse(this.parentElement.parentElement)">[-]
        </a>
        <a href="https://www.reddit.com/u/Excess">Excess</a>
        <span class="score"> | 3 points</span>
        <span class="timestamp"> | Jan 24 2018 13:52:49</span>
    </p>
    <div class="collapsible">
        <p>Is there a 720p x265 8bit version somewhere? Or something smaller than 3GB per episode?</p>
<p>It seems interesting, and has a great rating.</p>
<p>[EDIT] Here's a working <a href="https://www.reddit.com/r/megalinks/comments/5k67bv/tv_112263_season_1_720p_bluray_x264_shaanig_38_gb/">720p x264 version</a> at 3.8Gb.</p>
        <p class="toolbar">
            <a href="https://www.reddit.com/r/megalinks/comments/7slqhd/_/dt5ylkz">permalink</a>
        </p>
        
    </div>
</div>

<div class="comment" id="t1_dt5pik8">
    <p class="userinfo">
        <a
        class="toggle_hide_button"
        href="javascript:void(0)"
        onclick="toggle_collapse(this.parentElement.parentElement)">[-]
        </a>
        <a href="https://www.reddit.com/u/Zero__25">Zero__25</a>
        <span class="score"> | 1 points</span>
        <span class="timestamp"> | Jan 24 2018 08:38:13</span>
    </p>
    <div class="collapsible">
        <p>doesnt seem to be working 
edit: It works, you dont need to remove the bold characters from link</p>
        <p class="toolbar">
            <a href="https://www.reddit.com/r/megalinks/comments/7slqhd/_/dt5pik8">permalink</a>
        </p>
        <div class="comment" id="t1_dt5pm7f">
    <p class="userinfo">
        <a
        class="toggle_hide_button"
        href="javascript:void(0)"
        onclick="toggle_collapse(this.parentElement.parentElement)">[-]
        </a>
        <a href="https://www.reddit.com/u/heartless_drol">heartless_drol</a>
        <span class="score"> | 3 points</span>
        <span class="timestamp"> | Jan 24 2018 08:42:14</span>
    </p>
    <div class="collapsible">
        <p>its working, and you need to remove the bold charecters, otherwise the decoder will give wrong result. </p>
        <p class="toolbar">
            <a href="https://www.reddit.com/r/megalinks/comments/7slqhd/_/dt5pm7f">permalink</a>
        </p>
        <div class="comment" id="t1_dt89wba">
    <p class="userinfo">
        <a
        class="toggle_hide_button"
        href="javascript:void(0)"
        onclick="toggle_collapse(this.parentElement.parentElement)">[-]
        </a>
        <a href="https://www.reddit.com/u/Eucbevt">Eucbevt</a>
        <span class="score"> | 1 points</span>
        <span class="timestamp"> | Jan 25 2018 18:05:13</span>
    </p>
    <div class="collapsible">
        <p>It doesn't even give a result if you don't remove the bold characters.</p>
        <p class="toolbar">
            <a href="https://www.reddit.com/r/megalinks/comments/7slqhd/_/dt89wba">permalink</a>
        </p>
        
    </div>
</div>
    </div>
</div>
    </div>
</div>

<div class="comment" id="t1_dt5s8ct">
    <p class="userinfo">
        <a
        class="toggle_hide_button"
        href="javascript:void(0)"
        onclick="toggle_collapse(this.parentElement.parentElement)">[-]
        </a>
        <a href="https://www.reddit.com/u/Jonotaku">Jonotaku</a>
        <span class="score"> | 1 points</span>
        <span class="timestamp"> | Jan 24 2018 10:31:39</span>
    </p>
    <div class="collapsible">
        <p>Awesome. Does this include subtitles?</p>
        <p class="toolbar">
            <a href="https://www.reddit.com/r/megalinks/comments/7slqhd/_/dt5s8ct">permalink</a>
        </p>
        <div class="comment" id="t1_dt5sdvk">
    <p class="userinfo">
        <a
        class="toggle_hide_button"
        href="javascript:void(0)"
        onclick="toggle_collapse(this.parentElement.parentElement)">[-]
        </a>
        <a href="https://www.reddit.com/u/heartless_drol">heartless_drol</a>
        <span class="score"> | 2 points</span>
        <span class="timestamp"> | Jan 24 2018 10:38:11</span>
    </p>
    <div class="collapsible">
        <p>yes it does. It contians English subs, with a bunch of other languages. see below for details</p>
<p>Text #1
ID                                       : 3
Format                                   : PGS
Muxing mode                              : zlib
Codec ID                                 : S_HDMV/PGS
Codec ID/Info                            : Picture based subtitle format used on BDs/HD-DVDs
Duration                                 : 52 min 49 s
Bit rate                                 : 31.6 kb/s
Count of elements                        : 1230
Stream size                              : 12.0 MiB (1%)
Title                                    : English (SDH)
Language                                 : English
Default                                  : No
Forced                                   : No</p>
<p>Text #2
ID                                       : 4
Format                                   : PGS
Muxing mode                              : zlib
Codec ID                                 : S_HDMV/PGS
Codec ID/Info                            : Picture based subtitle format used on BDs/HD-DVDs
Duration                                 : 52 min 49 s
Bit rate                                 : 24.7 kb/s
Count of elements                        : 1104
Stream size                              : 9.32 MiB (0%)
Title                                    : French
Language                                 : French
Default                                  : No
Forced                                   : No</p>
<p>Text #3
ID                                       : 5
Format                                   : PGS
Muxing mode                              : zlib
Codec ID                                 : S_HDMV/PGS
Codec ID/Info                            : Picture based subtitle format used on BDs/HD-DVDs
Duration                                 : 52 min 49 s
Bit rate                                 : 25.7 kb/s
Count of elements                        : 1074
Stream size                              : 9.71 MiB (0%)
Title                                    : Dutch
Language                                 : Dutch
Default                                  : No
Forced                                   : No</p>
<p>Text #4
ID                                       : 6
Format                                   : PGS
Muxing mode                              : zlib
Codec ID                                 : S_HDMV/PGS
Codec ID/Info                            : Picture based subtitle format used on BDs/HD-DVDs
Duration                                 : 52 min 49 s
Bit rate                                 : 27.2 kb/s
Count of elements                        : 1110
Stream size                              : 10.3 MiB (0%)
Title                                    : Spanish (Latin American)
Language                                 : Spanish
Default                                  : No
Forced                                   : No</p>
<p>Text #5
ID                                       : 7
Format                                   : PGS
Muxing mode                              : zlib
Codec ID                                 : S_HDMV/PGS
Codec ID/Info                            : Picture based subtitle format used on BDs/HD-DVDs
Duration                                 : 52 min 49 s
Bit rate                                 : 26.9 kb/s
Count of elements                        : 1110
Stream size                              : 10.2 MiB (0%)
Title                                    : Portuguese (Brazilian)
Language                                 : Portuguese
Default                                  : No
Forced                                   : No</p>
<p>Text #6
ID                                       : 8
Format                                   : PGS
Muxing mode                              : zlib
Codec ID                                 : S_HDMV/PGS
Codec ID/Info                            : Picture based subtitle format used on BDs/HD-DVDs
Duration                                 : 52 min 49 s
Bit rate                                 : 26.4 kb/s
Count of elements                        : 1106
Stream size                              : 9.99 MiB (0%)
Title                                    : Danish
Language                                 : Danish
Default                                  : No
Forced                                   : No</p>
<p>Text #7
ID                                       : 9
Format                                   : PGS
Muxing mode                              : zlib
Codec ID                                 : S_HDMV/PGS
Codec ID/Info                            : Picture based subtitle format used on BDs/HD-DVDs
Duration                                 : 52 min 49 s
Bit rate                                 : 27.3 kb/s
Count of elements                        : 1110
Stream size                              : 10.3 MiB (0%)
Title                                    : Finnish
Language                                 : Finnish
Default                                  : No
Forced                                   : No</p>
<p>Text #8
ID                                       : 10
Format                                   : PGS
Muxing mode                              : zlib
Codec ID                                 : S_HDMV/PGS
Codec ID/Info                            : Picture based subtitle format used on BDs/HD-DVDs
Duration                                 : 52 min 49 s
Bit rate                                 : 25.3 kb/s
Count of elements                        : 1104
Stream size                              : 9.54 MiB (0%)
Title                                    : Norwegian
Language                                 : Norwegian
Default                                  : No
Forced                                   : No</p>
<p>Text #9
ID                                       : 11
Format                                   : PGS
Muxing mode                              : zlib
Codec ID                                 : S_HDMV/PGS
Codec ID/Info                            : Picture based subtitle format used on BDs/HD-DVDs
Duration                                 : 52 min 49 s
Bit rate                                 : 26.6 kb/s
Count of elements                        : 1106
Stream size                              : 10.0 MiB (0%)
Title                                    : Swedish
Language                                 : Swedish
Default                                  : No
Forced                                   : No</p>
        <p class="toolbar">
            <a href="https://www.reddit.com/r/megalinks/comments/7slqhd/_/dt5sdvk">permalink</a>
        </p>
        <div class="comment" id="t1_dt5uwl6">
    <p class="userinfo">
        <a
        class="toggle_hide_button"
        href="javascript:void(0)"
        onclick="toggle_collapse(this.parentElement.parentElement)">[-]
        </a>
        <a href="https://www.reddit.com/u/Jonotaku">Jonotaku</a>
        <span class="score"> | 1 points</span>
        <span class="timestamp"> | Jan 24 2018 12:14:11</span>
    </p>
    <div class="collapsible">
        <p>Thanks. This is very nice!</p>
        <p class="toolbar">
            <a href="https://www.reddit.com/r/megalinks/comments/7slqhd/_/dt5uwl6">permalink</a>
        </p>
        <div class="comment" id="t1_dt5w8qo">
    <p class="userinfo">
        <a
        class="toggle_hide_button"
        href="javascript:void(0)"
        onclick="toggle_collapse(this.parentElement.parentElement)">[-]
        </a>
        <a href="https://www.reddit.com/u/heartless_drol">heartless_drol</a>
        <span class="score"> | 1 points</span>
        <span class="timestamp"> | Jan 24 2018 12:54:26</span>
    </p>
    <div class="collapsible">
        <p>you are welcome my friend, all credit goes to the original torrent creator, Qman from UTR team</p>
        <p class="toolbar">
            <a href="https://www.reddit.com/r/megalinks/comments/7slqhd/_/dt5w8qo">permalink</a>
        </p>
        
    </div>
</div>
    </div>
</div>

<div class="comment" id="t1_dt77qz4">
    <p class="userinfo">
        <a
        class="toggle_hide_button"
        href="javascript:void(0)"
        onclick="toggle_collapse(this.parentElement.parentElement)">[-]
        </a>
        <a href="https://www.reddit.com/u/QSCFE">QSCFE</a>
        <span class="score"> | 1 points</span>
        <span class="timestamp"> | Jan 25 2018 02:39:38</span>
    </p>
    <div class="collapsible">
        <p>thank you very much<br>
This the info with reddit format</p>
<pre><code>Text #1
ID                                       : 3
Format                                   : PGS
Muxing mode                              : zlib
Codec ID                                 : S_HDMV/PGS
Codec ID/Info                            : Picture based subtitle format used on BDs/HD-DVDs
Duration                                 : 52 min 49 s
Bit rate                                 : 31.6 kb/s
Count of elements                        : 1230
Stream size                              : 12.0 MiB (1%)
Title                                    : English (SDH)
Language                                 : English
Default                                  : No
Forced                                   : No

Text #2
ID                                       : 4
Format                                   : PGS
Muxing mode                              : zlib
Codec ID                                 : S_HDMV/PGS
Codec ID/Info                            : Picture based subtitle format used on BDs/HD-DVDs
Duration                                 : 52 min 49 s
Bit rate                                 : 24.7 kb/s
Count of elements                        : 1104
Stream size                              : 9.32 MiB (0%)
Title                                    : French
Language                                 : French
Default                                  : No
Forced                                   : No

Text #3
ID                                       : 5
Format                                   : PGS
Muxing mode                              : zlib
Codec ID                                 : S_HDMV/PGS
Codec ID/Info                            : Picture based subtitle format used on BDs/HD-DVDs
Duration                                 : 52 min 49 s
Bit rate                                 : 25.7 kb/s
Count of elements                        : 1074
Stream size                              : 9.71 MiB (0%)
Title                                    : Dutch
Language                                 : Dutch
Default                                  : No
Forced                                   : No

Text #4
ID                                       : 6
Format                                   : PGS
Muxing mode                              : zlib
Codec ID                                 : S_HDMV/PGS
Codec ID/Info                            : Picture based subtitle format used on BDs/HD-DVDs
Duration                                 : 52 min 49 s
Bit rate                                 : 27.2 kb/s
Count of elements                        : 1110
Stream size                              : 10.3 MiB (0%)
Title                                    : Spanish (Latin American)
Language                                 : Spanish
Default                                  : No
Forced                                   : No

Text #5
ID                                       : 7
Format                                   : PGS
Muxing mode                              : zlib
Codec ID                                 : S_HDMV/PGS
Codec ID/Info                            : Picture based subtitle format used on BDs/HD-DVDs
Duration                                 : 52 min 49 s
Bit rate                                 : 26.9 kb/s
Count of elements                        : 1110
Stream size                              : 10.2 MiB (0%)
Title                                    : Portuguese (Brazilian)
Language                                 : Portuguese
Default                                  : No
Forced                                   : No

Text #6
ID                                       : 8
Format                                   : PGS
Muxing mode                              : zlib
Codec ID                                 : S_HDMV/PGS
Codec ID/Info                            : Picture based subtitle format used on BDs/HD-DVDs
Duration                                 : 52 min 49 s
Bit rate                                 : 26.4 kb/s
Count of elements                        : 1106
Stream size                              : 9.99 MiB (0%)
Title                                    : Danish
Language                                 : Danish
Default                                  : No
Forced                                   : No

Text #7
ID                                       : 9
Format                                   : PGS
Muxing mode                              : zlib
Codec ID                                 : S_HDMV/PGS
Codec ID/Info                            : Picture based subtitle format used on BDs/HD-DVDs
Duration                                 : 52 min 49 s
Bit rate                                 : 27.3 kb/s
Count of elements                        : 1110
Stream size                              : 10.3 MiB (0%)
Title                                    : Finnish
Language                                 : Finnish
Default                                  : No
Forced                                   : No

Text #8
ID                                       : 10
Format                                   : PGS
Muxing mode                              : zlib
Codec ID                                 : S_HDMV/PGS
Codec ID/Info                            : Picture based subtitle format used on BDs/HD-DVDs
Duration                                 : 52 min 49 s
Bit rate                                 : 25.3 kb/s
Count of elements                        : 1104
Stream size                              : 9.54 MiB (0%)
Title                                    : Norwegian
Language                                 : Norwegian
Default                                  : No
Forced                                   : No

Text #9
ID                                       : 11
Format                                   : PGS
Muxing mode                              : zlib
Codec ID                                 : S_HDMV/PGS
Codec ID/Info                            : Picture based subtitle format used on BDs/HD-DVDs
Duration                                 : 52 min 49 s
Bit rate                                 : 26.6 kb/s
Count of elements                        : 1106
Stream size                              : 10.0 MiB (0%)
Title                                    : Swedish
Language                                 : Swedish
Default                                  : No
Forced                                   : No
</code></pre>
        <p class="toolbar">
            <a href="https://www.reddit.com/r/megalinks/comments/7slqhd/_/dt77qz4">permalink</a>
        </p>
        
    </div>
</div>

<div class="comment" id="t1_dvhh2qz">
    <p class="userinfo">
        <a
        class="toggle_hide_button"
        href="javascript:void(0)"
        onclick="toggle_collapse(this.parentElement.parentElement)">[-]
        </a>
        <a href="https://www.reddit.com/u/nuwan32">nuwan32</a>
        <span class="score"> | 1 points</span>
        <span class="timestamp"> | Mar 10 2018 15:52:52</span>
    </p>
    <div class="collapsible">
        <p>Do you have the x264 version of this?</p>
        <p class="toolbar">
            <a href="https://www.reddit.com/r/megalinks/comments/7slqhd/_/dvhh2qz">permalink</a>
        </p>
        <div class="comment" id="t1_dvhh5hr">
    <p class="userinfo">
        <a
        class="toggle_hide_button"
        href="javascript:void(0)"
        onclick="toggle_collapse(this.parentElement.parentElement)">[-]
        </a>
        <a href="https://www.reddit.com/u/heartless_drol">heartless_drol</a>
        <span class="score"> | 1 points</span>
        <span class="timestamp"> | Mar 10 2018 15:54:22</span>
    </p>
    <div class="collapsible">
        <p>no i dont have, put it in request post, maybe someone who has will upload it.</p>
        <p class="toolbar">
            <a href="https://www.reddit.com/r/megalinks/comments/7slqhd/_/dvhh5hr">permalink</a>
        </p>
        
    </div>
</div>
    </div>
</div>
    </div>
</div>
    </div>
</div>
</body>

<script>
function toggle_collapse(comment_div)
{
    var button = comment_div.getElementsByClassName("toggle_hide_button")[0];
    var collapsible = comment_div.getElementsByClassName("collapsible")[0];
    if (collapsible.classList.contains("hidden"))
    {
        collapsible.classList.remove("hidden");
        button.innerText = "[-]";
    }
    else
    {
        collapsible.classList.add("hidden");
        button.innerText = "[+]";
    }
}
</script>
</html>
